<?xml version="1.0" encoding="UTF-8" standalone="no"?>
<!DOCTYPE svg PUBLIC "-//W3C//DTD SVG 1.1//EN" "http://www.w3.org/Graphics/SVG/1.1/DTD/svg11.dtd">
<svg xmlns="http://www.w3.org/2000/svg" xmlns:xlink="http://www.w3.org/1999/xlink" version="1.1" width="335.717pt" height="117.488pt" viewBox="0 0 335.717 117.488">
<g enable-background="new">
<g id="Layer-1" data-name="Layer 1">
<clipPath id="cp0">
<path transform="matrix(1,0,0,-1,0,117.488)" d="M 0 117.488 L 335.717 117.488 L 335.717 0 L 0 0 Z "/>
</clipPath>
<g clip-path="url(#cp0)">
<path transform="matrix(1,0,0,-1,76.6629,84.4841)" d="M 0 0 L -2.273 0 L -11.637 14.379 L -11.73 14.379 C -11.605 12.691 -11.543 11.145 -11.543 9.738 L -11.543 0 L -13.383 0 L -13.383 17.133 L -11.133 17.133 L -1.793 2.813 L -1.699 2.813 C -1.715 3.023 -1.75 3.701 -1.805 4.846 C -1.859 5.99 -1.879 6.809 -1.863 7.301 L -1.863 17.133 L 0 17.133 Z " fill="#231f20"/>
<path transform="matrix(1,0,0,-1,82.3816,78.0505)" d="M 0 0 C 0 -1.641 .328 -2.891 .984 -3.75 C 1.641 -4.609 2.605 -5.039 3.879 -5.039 C 5.152 -5.039 6.119 -4.611 6.779 -3.756 C 7.439 -2.9 7.77 -1.648 7.77 0 C 7.77 1.633 7.439 2.873 6.779 3.721 C 6.119 4.568 5.145 4.992 3.855 4.992 C 2.582 4.992 1.621 4.574 .973 3.738 C .324 2.902 0 1.656 0 0 M 9.785 0 C 9.785 -2.094 9.258 -3.729 8.203 -4.904 C 7.148 -6.08 5.691 -6.668 3.832 -6.668 C 2.684 -6.668 1.664 -6.398 .773 -5.859 C -.117 -5.32 -.805 -4.547 -1.289 -3.539 C -1.773 -2.531 -2.016 -1.352 -2.016 0 C -2.016 2.094 -1.492 3.725 -.445 4.893 C .602 6.061 2.055 6.645 3.914 6.645 C 5.711 6.645 7.139 6.047 8.197 4.852 C 9.256 3.656 9.785 2.039 9.785 0 " fill="#231f20"/>
<path transform="matrix(1,0,0,-1,101.4363,71.406)" d="M 0 0 C .57 0 1.082 -.047 1.535 -.141 L 1.266 -1.945 C .734 -1.828 .266 -1.77 -.141 -1.77 C -1.18 -1.77 -2.068 -2.191 -2.807 -3.035 C -3.545 -3.879 -3.914 -4.93 -3.914 -6.187 L -3.914 -13.078 L -5.859 -13.078 L -5.859 -.234 L -4.254 -.234 L -4.031 -2.613 L -3.938 -2.613 C -3.461 -1.777 -2.887 -1.133 -2.215 -.68 C -1.543 -.227 -.805 0 0 0 " fill="#231f20"/>
<path transform="matrix(1,0,0,-1,115.8621,84.4841)" d="M 0 0 L -2.355 7.535 C -2.504 7.996 -2.781 9.043 -3.188 10.676 L -3.281 10.676 C -3.594 9.309 -3.867 8.254 -4.102 7.512 L -6.527 0 L -8.777 0 L -12.281 12.844 L -10.242 12.844 C -9.414 9.617 -8.783 7.16 -8.35 5.473 C -7.916 3.785 -7.668 2.648 -7.605 2.063 L -7.512 2.063 C -7.426 2.508 -7.287 3.084 -7.096 3.791 C -6.904 4.498 -6.738 5.059 -6.598 5.473 L -4.242 12.844 L -2.133 12.844 L .164 5.473 C .602 4.129 .898 3 1.055 2.086 L 1.148 2.086 C 1.18 2.367 1.264 2.801 1.4 3.387 C 1.537 3.973 2.352 7.125 3.844 12.844 L 5.859 12.844 L 2.309 0 Z " fill="#231f20"/>
<path transform="matrix(1,0,0,-1,128.9402,73.0349)" d="M 0 0 C -1.031 0 -1.854 -.336 -2.467 -1.008 C -3.08 -1.68 -3.441 -2.609 -3.551 -3.797 L 3.164 -3.797 C 3.164 -2.57 2.891 -1.631 2.344 -.979 C 1.797 -.326 1.016 0 0 0 M .527 -11.684 C -1.371 -11.684 -2.869 -11.105 -3.967 -9.949 C -5.064 -8.793 -5.613 -7.187 -5.613 -5.133 C -5.613 -3.063 -5.104 -1.418 -4.084 -.199 C -3.064 1.02 -1.695 1.629 .023 1.629 C 1.633 1.629 2.906 1.1 3.844 .041 C 4.781 -1.018 5.25 -2.414 5.25 -4.148 L 5.25 -5.379 L -3.598 -5.379 C -3.559 -6.887 -3.178 -8.031 -2.455 -8.813 C -1.732 -9.594 -.715 -9.984 .598 -9.984 C 1.98 -9.984 3.348 -9.695 4.699 -9.117 L 4.699 -10.852 C 4.012 -11.148 3.361 -11.361 2.748 -11.49 C 2.135 -11.619 1.395 -11.684 .527 -11.684 " fill="#231f20"/>
<path transform="matrix(1,0,0,-1,138.8308,75.7536)" d="M 0 0 C 0 -.898 .254 -1.578 .762 -2.039 C 1.27 -2.5 1.977 -2.73 2.883 -2.73 C 4.781 -2.73 5.73 -1.809 5.73 .035 C 5.73 1.965 4.77 2.93 2.848 2.93 C 1.934 2.93 1.23 2.684 .738 2.191 C .246 1.699 0 .969 0 0 M -1.055 -10.887 C -1.055 -11.582 -.762 -12.109 -.176 -12.469 C .41 -12.828 1.25 -13.008 2.344 -13.008 C 3.977 -13.008 5.186 -12.764 5.971 -12.275 C 6.756 -11.787 7.148 -11.125 7.148 -10.289 C 7.148 -9.594 6.934 -9.111 6.504 -8.842 C 6.074 -8.572 5.266 -8.438 4.078 -8.438 L 1.746 -8.438 C .863 -8.438 .176 -8.648 -.316 -9.07 C -.809 -9.492 -1.055 -10.098 -1.055 -10.887 M 9.188 4.113 L 9.188 2.883 L 6.809 2.602 C 7.027 2.328 7.223 1.971 7.395 1.529 C 7.566 1.088 7.652 .59 7.652 .035 C 7.652 -1.223 7.223 -2.227 6.363 -2.977 C 5.504 -3.727 4.324 -4.102 2.824 -4.102 C 2.441 -4.102 2.082 -4.07 1.746 -4.008 C .918 -4.445 .504 -4.996 .504 -5.66 C .504 -6.012 .648 -6.271 .937 -6.439 C 1.227 -6.607 1.723 -6.691 2.426 -6.691 L 4.699 -6.691 C 6.09 -6.691 7.158 -6.984 7.904 -7.57 C 8.65 -8.156 9.023 -9.008 9.023 -10.125 C 9.023 -11.547 8.453 -12.631 7.312 -13.377 C 6.172 -14.123 4.508 -14.496 2.32 -14.496 C .641 -14.496 -.654 -14.184 -1.564 -13.559 C -2.475 -12.934 -2.93 -12.051 -2.93 -10.91 C -2.93 -10.129 -2.68 -9.453 -2.18 -8.883 C -1.68 -8.313 -.977 -7.926 -.07 -7.723 C -.398 -7.574 -.674 -7.344 -.896 -7.031 C -1.119 -6.719 -1.23 -6.355 -1.23 -5.941 C -1.23 -5.473 -1.105 -5.062 -.855 -4.711 C -.605 -4.359 -.211 -4.02 .328 -3.691 C -.336 -3.418 -.877 -2.953 -1.295 -2.297 C -1.713 -1.641 -1.922 -.891 -1.922 -.047 C -1.922 1.359 -1.5 2.443 -.656 3.205 C .187 3.967 1.383 4.348 2.93 4.348 C 3.602 4.348 4.207 4.27 4.746 4.113 Z " fill="#231f20"/>
<path transform="matrix(1,0,0,-1,0,117.488)" d="M 152.6 33.004 L 150.655 33.004 L 150.655 45.848 L 152.6 45.848 Z M 150.491 49.328 C 150.491 49.773 150.6 50.1 150.819 50.307 C 151.038 50.514 151.311 50.617 151.639 50.617 C 151.952 50.617 152.221 50.512 152.448 50.301 C 152.675 50.09 152.788 49.766 152.788 49.328 C 152.788 48.891 152.675 48.564 152.448 48.35 C 152.221 48.135 151.952 48.027 151.639 48.027 C 151.311 48.027 151.038 48.135 150.819 48.35 C 150.6 48.564 150.491 48.891 150.491 49.328 " fill="#231f20"/>
<path transform="matrix(1,0,0,-1,160.2293,83.113)" d="M 0 0 C 1.211 0 2.162 .332 2.854 .996 C 3.545 1.66 3.891 2.59 3.891 3.785 L 3.891 4.945 L 1.945 4.863 C .398 4.809 -.717 4.568 -1.4 4.143 C -2.084 3.717 -2.426 3.055 -2.426 2.156 C -2.426 1.453 -2.213 .918 -1.787 .551 C -1.361 .184 -.766 0 0 0 M 4.395 -1.371 L 4.008 .457 L 3.914 .457 C 3.273 -.348 2.635 -.893 1.998 -1.178 C 1.361 -1.463 .566 -1.605 -.387 -1.605 C -1.66 -1.605 -2.658 -1.277 -3.381 -.621 C -4.104 .035 -4.465 .969 -4.465 2.18 C -4.465 4.773 -2.391 6.133 1.758 6.258 L 3.938 6.328 L 3.938 7.125 C 3.938 8.133 3.721 8.877 3.287 9.357 C 2.854 9.838 2.16 10.078 1.207 10.078 C .137 10.078 -1.074 9.75 -2.426 9.094 L -3.023 10.582 C -2.391 10.926 -1.697 11.195 -.943 11.391 C -.189 11.586 .566 11.684 1.324 11.684 C 2.855 11.684 3.99 11.344 4.729 10.664 C 5.467 9.984 5.836 8.895 5.836 7.395 L 5.836 -1.371 Z " fill="#231f20"/>
<path transform="matrix(1,0,0,-1,178.8621,84.4841)" d="M 0 0 L 0 8.309 C 0 9.355 -.238 10.137 -.715 10.652 C -1.191 11.168 -1.937 11.426 -2.953 11.426 C -4.297 11.426 -5.281 11.063 -5.906 10.336 C -6.531 9.609 -6.844 8.41 -6.844 6.738 L -6.844 0 L -8.789 0 L -8.789 12.844 L -7.207 12.844 L -6.891 11.086 L -6.797 11.086 C -6.398 11.719 -5.84 12.209 -5.121 12.557 C -4.402 12.904 -3.602 13.078 -2.719 13.078 C -1.172 13.078 -.008 12.705 .773 11.959 C 1.555 11.213 1.945 10.02 1.945 8.379 L 1.945 0 Z " fill="#231f20"/>
<path transform="matrix(1,0,0,-1,204.2683,67.3513)" d="M 0 0 L 0 -11.086 C 0 -13.039 -.59 -14.574 -1.77 -15.691 C -2.949 -16.809 -4.57 -17.367 -6.633 -17.367 C -8.695 -17.367 -10.291 -16.805 -11.42 -15.68 C -12.549 -14.555 -13.113 -13.008 -13.113 -11.039 L -13.113 0 L -11.121 0 L -11.121 -11.18 C -11.121 -12.609 -10.73 -13.707 -9.949 -14.473 C -9.168 -15.238 -8.02 -15.621 -6.504 -15.621 C -5.059 -15.621 -3.945 -15.236 -3.164 -14.467 C -2.383 -13.697 -1.992 -12.594 -1.992 -11.156 L -1.992 0 Z " fill="#231f20"/>
<path transform="matrix(1,0,0,-1,217.2996,84.4841)" d="M 0 0 L 0 8.309 C 0 9.355 -.238 10.137 -.715 10.652 C -1.191 11.168 -1.937 11.426 -2.953 11.426 C -4.297 11.426 -5.281 11.063 -5.906 10.336 C -6.531 9.609 -6.844 8.41 -6.844 6.738 L -6.844 0 L -8.789 0 L -8.789 12.844 L -7.207 12.844 L -6.891 11.086 L -6.797 11.086 C -6.398 11.719 -5.84 12.209 -5.121 12.557 C -4.402 12.904 -3.602 13.078 -2.719 13.078 C -1.172 13.078 -.008 12.705 .773 11.959 C 1.555 11.213 1.945 10.02 1.945 8.379 L 1.945 0 Z " fill="#231f20"/>
<path transform="matrix(1,0,0,-1,0,117.488)" d="M 225.186 33.004 L 223.241 33.004 L 223.241 45.848 L 225.186 45.848 Z M 223.077 49.328 C 223.077 49.773 223.186 50.1 223.405 50.307 C 223.624 50.514 223.897 50.617 224.225 50.617 C 224.538 50.617 224.807 50.512 225.034 50.301 C 225.261 50.09 225.374 49.766 225.374 49.328 C 225.374 48.891 225.261 48.564 225.034 48.35 C 224.807 48.135 224.538 48.027 224.225 48.027 C 223.897 48.027 223.624 48.135 223.405 48.35 C 223.186 48.564 223.077 48.891 223.077 49.328 " fill="#231f20"/>
<path transform="matrix(1,0,0,-1,232.1238,84.4841)" d="M 0 0 L -4.875 12.844 L -2.789 12.844 L -.023 5.227 C .602 3.445 .969 2.289 1.078 1.758 L 1.172 1.758 C 1.258 2.172 1.529 3.029 1.986 4.33 C 2.443 5.631 3.469 8.469 5.062 12.844 L 7.148 12.844 L 2.273 0 Z " fill="#231f20"/>
<path transform="matrix(1,0,0,-1,246.2332,73.0349)" d="M 0 0 C -1.031 0 -1.854 -.336 -2.467 -1.008 C -3.08 -1.68 -3.441 -2.609 -3.551 -3.797 L 3.164 -3.797 C 3.164 -2.57 2.891 -1.631 2.344 -.979 C 1.797 -.326 1.016 0 0 0 M .527 -11.684 C -1.371 -11.684 -2.869 -11.105 -3.967 -9.949 C -5.064 -8.793 -5.613 -7.187 -5.613 -5.133 C -5.613 -3.063 -5.104 -1.418 -4.084 -.199 C -3.064 1.02 -1.695 1.629 .023 1.629 C 1.633 1.629 2.906 1.1 3.844 .041 C 4.781 -1.018 5.25 -2.414 5.25 -4.148 L 5.25 -5.379 L -3.598 -5.379 C -3.559 -6.887 -3.178 -8.031 -2.455 -8.813 C -1.732 -9.594 -.715 -9.984 .598 -9.984 C 1.98 -9.984 3.348 -9.695 4.699 -9.117 L 4.699 -10.852 C 4.012 -11.148 3.361 -11.361 2.748 -11.49 C 2.135 -11.619 1.395 -11.684 .527 -11.684 " fill="#231f20"/>
<path transform="matrix(1,0,0,-1,260.6589,71.406)" d="M 0 0 C .57 0 1.082 -.047 1.535 -.141 L 1.266 -1.945 C .734 -1.828 .266 -1.77 -.141 -1.77 C -1.18 -1.77 -2.068 -2.191 -2.807 -3.035 C -3.545 -3.879 -3.914 -4.93 -3.914 -6.187 L -3.914 -13.078 L -5.859 -13.078 L -5.859 -.234 L -4.254 -.234 L -4.031 -2.613 L -3.938 -2.613 C -3.461 -1.777 -2.887 -1.133 -2.215 -.68 C -1.543 -.227 -.805 0 0 0 " fill="#231f20"/>
<path transform="matrix(1,0,0,-1,272.8816,80.980197)" d="M 0 0 C 0 -1.195 -.445 -2.117 -1.336 -2.766 C -2.227 -3.414 -3.477 -3.738 -5.086 -3.738 C -6.789 -3.738 -8.117 -3.469 -9.07 -2.93 L -9.07 -1.125 C -8.453 -1.437 -7.791 -1.684 -7.084 -1.863 C -6.377 -2.043 -5.695 -2.133 -5.039 -2.133 C -4.023 -2.133 -3.242 -1.971 -2.695 -1.646 C -2.148 -1.322 -1.875 -.828 -1.875 -.164 C -1.875 .336 -2.092 .764 -2.525 1.119 C -2.959 1.475 -3.805 1.895 -5.062 2.379 C -6.258 2.824 -7.107 3.213 -7.611 3.545 C -8.115 3.877 -8.49 4.254 -8.736 4.676 C -8.982 5.098 -9.105 5.602 -9.105 6.187 C -9.105 7.234 -8.68 8.061 -7.828 8.666 C -6.977 9.271 -5.809 9.574 -4.324 9.574 C -2.941 9.574 -1.59 9.293 -.27 8.73 L -.961 7.148 C -2.25 7.68 -3.418 7.945 -4.465 7.945 C -5.387 7.945 -6.082 7.801 -6.551 7.512 C -7.02 7.223 -7.254 6.824 -7.254 6.316 C -7.254 5.973 -7.166 5.68 -6.99 5.437 C -6.814 5.195 -6.531 4.965 -6.141 4.746 C -5.75 4.527 -5 4.211 -3.891 3.797 C -2.367 3.242 -1.338 2.684 -.803 2.121 C -.268 1.559 0 .852 0 0 " fill="#231f20"/>
<path transform="matrix(1,0,0,-1,0,117.488)" d="M 277.991 33.004 L 276.046 33.004 L 276.046 45.848 L 277.991 45.848 Z M 275.882 49.328 C 275.882 49.773 275.991 50.1 276.21 50.307 C 276.428 50.514 276.702 50.617 277.03 50.617 C 277.343 50.617 277.612 50.512 277.839 50.301 C 278.065 50.09 278.178 49.766 278.178 49.328 C 278.178 48.891 278.065 48.564 277.839 48.35 C 277.612 48.135 277.343 48.027 277.03 48.027 C 276.702 48.027 276.428 48.135 276.21 48.35 C 275.991 48.564 275.882 48.891 275.882 49.328 " fill="#231f20"/>
<path transform="matrix(1,0,0,-1,286.2644,83.113)" d="M 0 0 C .344 0 .676 .025 .996 .076 C 1.316 .127 1.57 .18 1.758 .234 L 1.758 -1.254 C 1.547 -1.355 1.236 -1.439 .826 -1.506 C .416 -1.572 .047 -1.605 -.281 -1.605 C -2.766 -1.605 -4.008 -.297 -4.008 2.32 L -4.008 9.961 L -5.848 9.961 L -5.848 10.898 L -4.008 11.707 L -3.188 14.449 L -2.063 14.449 L -2.063 11.473 L 1.664 11.473 L 1.664 9.961 L -2.063 9.961 L -2.063 2.402 C -2.063 1.629 -1.879 1.035 -1.512 .621 C -1.145 .207 -.641 0 0 0 " fill="#231f20"/>
<path transform="matrix(1,0,0,-1,288.5496,71.640308)" d="M 0 0 L 2.086 0 L 4.898 -7.324 C 5.516 -8.996 5.898 -10.203 6.047 -10.945 L 6.141 -10.945 C 6.242 -10.547 6.455 -9.865 6.779 -8.9 C 7.104 -7.936 8.164 -4.969 9.961 0 L 12.047 0 L 6.527 -14.625 C 5.98 -16.07 5.342 -17.096 4.611 -17.701 C 3.881 -18.307 2.984 -18.609 1.922 -18.609 C 1.328 -18.609 .742 -18.543 .164 -18.41 L .164 -16.852 C .594 -16.945 1.074 -16.992 1.605 -16.992 C 2.941 -16.992 3.895 -16.242 4.465 -14.742 L 5.18 -12.914 Z " fill="#231f20"/>
<path transform="matrix(1,0,0,-1,310.217,78.0505)" d="M 0 0 C 0 -1.641 .328 -2.891 .984 -3.75 C 1.641 -4.609 2.605 -5.039 3.879 -5.039 C 5.152 -5.039 6.119 -4.611 6.779 -3.756 C 7.439 -2.9 7.77 -1.648 7.77 0 C 7.77 1.633 7.439 2.873 6.779 3.721 C 6.119 4.568 5.145 4.992 3.855 4.992 C 2.582 4.992 1.621 4.574 .973 3.738 C .324 2.902 0 1.656 0 0 M 9.785 0 C 9.785 -2.094 9.258 -3.729 8.203 -4.904 C 7.148 -6.08 5.691 -6.668 3.832 -6.668 C 2.684 -6.668 1.664 -6.398 .773 -5.859 C -.117 -5.32 -.805 -4.547 -1.289 -3.539 C -1.773 -2.531 -2.016 -1.352 -2.016 0 C -2.016 2.094 -1.492 3.725 -.445 4.893 C .602 6.061 2.055 6.645 3.914 6.645 C 5.711 6.645 7.139 6.047 8.197 4.852 C 9.256 3.656 9.785 2.039 9.785 0 " fill="#231f20"/>
<path transform="matrix(1,0,0,-1,329.2014,73.1521)" d="M 0 0 L -3.27 0 L -3.27 -11.332 L -5.215 -11.332 L -5.215 0 L -7.512 0 L -7.512 .879 L -5.215 1.582 L -5.215 2.297 C -5.215 5.453 -3.836 7.031 -1.078 7.031 C -.398 7.031 .398 6.895 1.312 6.621 L .809 5.062 C .059 5.305 -.582 5.426 -1.113 5.426 C -1.848 5.426 -2.391 5.182 -2.742 4.693 C -3.094 4.205 -3.27 3.422 -3.27 2.344 L -3.27 1.512 L 0 1.512 Z " fill="#231f20"/>
<path transform="matrix(1,0,0,-1,72.948,106.4255)" d="M 0 0 C 0 -1.508 -.547 -2.684 -1.641 -3.527 C -2.734 -4.371 -4.219 -4.793 -6.094 -4.793 C -8.125 -4.793 -9.688 -4.531 -10.781 -4.008 L -10.781 -2.086 C -10.078 -2.383 -9.313 -2.617 -8.484 -2.789 C -7.656 -2.961 -6.836 -3.047 -6.023 -3.047 C -4.695 -3.047 -3.695 -2.795 -3.023 -2.291 C -2.352 -1.787 -2.016 -1.086 -2.016 -.187 C -2.016 .406 -2.135 .893 -2.373 1.271 C -2.611 1.65 -3.01 2 -3.568 2.32 C -4.127 2.641 -4.977 3.004 -6.117 3.41 C -7.711 3.98 -8.85 4.656 -9.533 5.437 C -10.217 6.219 -10.559 7.238 -10.559 8.496 C -10.559 9.816 -10.063 10.867 -9.07 11.648 C -8.078 12.43 -6.766 12.82 -5.133 12.82 C -3.43 12.82 -1.863 12.508 -.434 11.883 L -1.055 10.148 C -2.469 10.742 -3.844 11.039 -5.18 11.039 C -6.234 11.039 -7.059 10.813 -7.652 10.359 C -8.246 9.906 -8.543 9.277 -8.543 8.473 C -8.543 7.879 -8.434 7.393 -8.215 7.014 C -7.996 6.635 -7.627 6.287 -7.107 5.971 C -6.588 5.654 -5.793 5.305 -4.723 4.922 C -2.926 4.281 -1.689 3.594 -1.014 2.859 C -.338 2.125 0 1.172 0 0 " fill="#231f20"/>
<path transform="matrix(1,0,0,-1,81.2918,111.2185)" d="M 0 0 C -1.859 0 -3.299 .572 -4.318 1.717 C -5.338 2.861 -5.848 4.48 -5.848 6.574 C -5.848 8.723 -5.33 10.383 -4.295 11.555 C -3.26 12.727 -1.785 13.313 .129 13.313 C .746 13.313 1.363 13.246 1.98 13.113 C 2.598 12.98 3.082 12.824 3.434 12.645 L 2.836 10.992 C 2.406 11.164 1.937 11.307 1.43 11.42 C .922 11.533 .473 11.59 .082 11.59 C -2.527 11.59 -3.832 9.926 -3.832 6.598 C -3.832 5.02 -3.514 3.809 -2.877 2.965 C -2.24 2.121 -1.297 1.699 -.047 1.699 C 1.023 1.699 2.121 1.93 3.246 2.391 L 3.246 .668 C 2.387 .223 1.305 0 0 0 " fill="#231f20"/>
<path transform="matrix(1,0,0,-1,0,117.488)" d="M 89.53 6.504 L 87.585 6.504 L 87.585 19.348 L 89.53 19.348 Z M 87.421 22.828 C 87.421 23.273 87.53 23.6 87.749 23.807 C 87.968 24.014 88.241 24.117 88.569 24.117 C 88.882 24.117 89.151 24.012 89.378 23.801 C 89.604 23.59 89.718 23.266 89.718 22.828 C 89.718 22.391 89.604 22.064 89.378 21.85 C 89.151 21.635 88.882 21.527 88.569 21.527 C 88.241 21.527 87.968 21.635 87.749 21.85 C 87.53 22.064 87.421 22.391 87.421 22.828 " fill="#231f20"/>
<path transform="matrix(1,0,0,-1,98.5535,99.5349)" d="M 0 0 C -1.031 0 -1.854 -.336 -2.467 -1.008 C -3.08 -1.68 -3.441 -2.609 -3.551 -3.797 L 3.164 -3.797 C 3.164 -2.57 2.891 -1.631 2.344 -.979 C 1.797 -.326 1.016 0 0 0 M .527 -11.684 C -1.371 -11.684 -2.869 -11.105 -3.967 -9.949 C -5.064 -8.793 -5.613 -7.187 -5.613 -5.133 C -5.613 -3.063 -5.104 -1.418 -4.084 -.199 C -3.064 1.02 -1.695 1.629 .023 1.629 C 1.633 1.629 2.906 1.1 3.844 .041 C 4.781 -1.018 5.25 -2.414 5.25 -4.148 L 5.25 -5.379 L -3.598 -5.379 C -3.559 -6.887 -3.178 -8.031 -2.455 -8.813 C -1.732 -9.594 -.715 -9.984 .598 -9.984 C 1.98 -9.984 3.348 -9.695 4.699 -9.117 L 4.699 -10.852 C 4.012 -11.148 3.361 -11.361 2.748 -11.49 C 2.135 -11.619 1.395 -11.684 .527 -11.684 " fill="#231f20"/>
<path transform="matrix(1,0,0,-1,115.909,110.9841)" d="M 0 0 L 0 8.309 C 0 9.355 -.238 10.137 -.715 10.652 C -1.191 11.168 -1.937 11.426 -2.953 11.426 C -4.297 11.426 -5.281 11.063 -5.906 10.336 C -6.531 9.609 -6.844 8.41 -6.844 6.738 L -6.844 0 L -8.789 0 L -8.789 12.844 L -7.207 12.844 L -6.891 11.086 L -6.797 11.086 C -6.398 11.719 -5.84 12.209 -5.121 12.557 C -4.402 12.904 -3.602 13.078 -2.719 13.078 C -1.172 13.078 -.008 12.705 .773 11.959 C 1.555 11.213 1.945 10.02 1.945 8.379 L 1.945 0 Z " fill="#231f20"/>
<path transform="matrix(1,0,0,-1,126.9832,111.2185)" d="M 0 0 C -1.859 0 -3.299 .572 -4.318 1.717 C -5.338 2.861 -5.848 4.48 -5.848 6.574 C -5.848 8.723 -5.33 10.383 -4.295 11.555 C -3.26 12.727 -1.785 13.313 .129 13.313 C .746 13.313 1.363 13.246 1.98 13.113 C 2.598 12.98 3.082 12.824 3.434 12.645 L 2.836 10.992 C 2.406 11.164 1.937 11.307 1.43 11.42 C .922 11.533 .473 11.59 .082 11.59 C -2.527 11.59 -3.832 9.926 -3.832 6.598 C -3.832 5.02 -3.514 3.809 -2.877 2.965 C -2.24 2.121 -1.297 1.699 -.047 1.699 C 1.023 1.699 2.121 1.93 3.246 2.391 L 3.246 .668 C 2.387 .223 1.305 0 0 0 " fill="#231f20"/>
<path transform="matrix(1,0,0,-1,138.1746,99.5349)" d="M 0 0 C -1.031 0 -1.854 -.336 -2.467 -1.008 C -3.08 -1.68 -3.441 -2.609 -3.551 -3.797 L 3.164 -3.797 C 3.164 -2.57 2.891 -1.631 2.344 -.979 C 1.797 -.326 1.016 0 0 0 M .527 -11.684 C -1.371 -11.684 -2.869 -11.105 -3.967 -9.949 C -5.064 -8.793 -5.613 -7.187 -5.613 -5.133 C -5.613 -3.063 -5.104 -1.418 -4.084 -.199 C -3.064 1.02 -1.695 1.629 .023 1.629 C 1.633 1.629 2.906 1.1 3.844 .041 C 4.781 -1.018 5.25 -2.414 5.25 -4.148 L 5.25 -5.379 L -3.598 -5.379 C -3.559 -6.887 -3.178 -8.031 -2.455 -8.813 C -1.732 -9.594 -.715 -9.984 .598 -9.984 C 1.98 -9.984 3.348 -9.695 4.699 -9.117 L 4.699 -10.852 C 4.012 -11.148 3.361 -11.361 2.748 -11.49 C 2.135 -11.619 1.395 -11.684 .527 -11.684 " fill="#231f20"/>
<path transform="matrix(1,0,0,-1,156.4793,109.613)" d="M 0 0 C 1.211 0 2.162 .332 2.854 .996 C 3.545 1.66 3.891 2.59 3.891 3.785 L 3.891 4.945 L 1.945 4.863 C .398 4.809 -.717 4.568 -1.4 4.143 C -2.084 3.717 -2.426 3.055 -2.426 2.156 C -2.426 1.453 -2.213 .918 -1.787 .551 C -1.361 .184 -.766 0 0 0 M 4.395 -1.371 L 4.008 .457 L 3.914 .457 C 3.273 -.348 2.635 -.893 1.998 -1.178 C 1.361 -1.463 .566 -1.605 -.387 -1.605 C -1.66 -1.605 -2.658 -1.277 -3.381 -.621 C -4.104 .035 -4.465 .969 -4.465 2.18 C -4.465 4.773 -2.391 6.133 1.758 6.258 L 3.938 6.328 L 3.938 7.125 C 3.938 8.133 3.721 8.877 3.287 9.357 C 2.854 9.838 2.16 10.078 1.207 10.078 C .137 10.078 -1.074 9.75 -2.426 9.094 L -3.023 10.582 C -2.391 10.926 -1.697 11.195 -.943 11.391 C -.189 11.586 .566 11.684 1.324 11.684 C 2.855 11.684 3.99 11.344 4.729 10.664 C 5.467 9.984 5.836 8.895 5.836 7.395 L 5.836 -1.371 Z " fill="#231f20"/>
<path transform="matrix(1,0,0,-1,175.1121,110.9841)" d="M 0 0 L 0 8.309 C 0 9.355 -.238 10.137 -.715 10.652 C -1.191 11.168 -1.937 11.426 -2.953 11.426 C -4.297 11.426 -5.281 11.063 -5.906 10.336 C -6.531 9.609 -6.844 8.41 -6.844 6.738 L -6.844 0 L -8.789 0 L -8.789 12.844 L -7.207 12.844 L -6.891 11.086 L -6.797 11.086 C -6.398 11.719 -5.84 12.209 -5.121 12.557 C -4.402 12.904 -3.602 13.078 -2.719 13.078 C -1.172 13.078 -.008 12.705 .773 11.959 C 1.555 11.213 1.945 10.02 1.945 8.379 L 1.945 0 Z " fill="#231f20"/>
<path transform="matrix(1,0,0,-1,185.905,109.5896)" d="M 0 0 C 1.328 0 2.291 .361 2.889 1.084 C 3.486 1.807 3.785 2.973 3.785 4.582 L 3.785 4.992 C 3.785 6.812 3.482 8.111 2.877 8.889 C 2.271 9.666 1.305 10.055 -.023 10.055 C -1.164 10.055 -2.037 9.611 -2.643 8.725 C -3.248 7.838 -3.551 6.586 -3.551 4.969 C -3.551 3.328 -3.25 2.09 -2.648 1.254 C -2.047 .418 -1.164 0 0 0 M 3.891 .328 L 3.785 .328 C 2.887 -.977 1.543 -1.629 -.246 -1.629 C -1.926 -1.629 -3.232 -1.055 -4.166 .094 C -5.1 1.242 -5.566 2.875 -5.566 4.992 C -5.566 7.109 -5.098 8.754 -4.16 9.926 C -3.223 11.098 -1.918 11.684 -.246 11.684 C 1.496 11.684 2.832 11.051 3.762 9.785 L 3.914 9.785 L 3.832 10.711 L 3.785 11.613 L 3.785 16.84 L 5.73 16.84 L 5.73 -1.395 L 4.148 -1.395 Z " fill="#231f20"/>
<path transform="matrix(1,0,0,-1,207.5613,110.9841)" d="M 0 0 L -1.992 0 L -1.992 15.363 L -7.418 15.363 L -7.418 17.133 L 5.426 17.133 L 5.426 15.363 L 0 15.363 Z " fill="#231f20"/>
<path transform="matrix(1,0,0,-1,220.1707,99.5349)" d="M 0 0 C -1.031 0 -1.854 -.336 -2.467 -1.008 C -3.08 -1.68 -3.441 -2.609 -3.551 -3.797 L 3.164 -3.797 C 3.164 -2.57 2.891 -1.631 2.344 -.979 C 1.797 -.326 1.016 0 0 0 M .527 -11.684 C -1.371 -11.684 -2.869 -11.105 -3.967 -9.949 C -5.064 -8.793 -5.613 -7.187 -5.613 -5.133 C -5.613 -3.063 -5.104 -1.418 -4.084 -.199 C -3.064 1.02 -1.695 1.629 .023 1.629 C 1.633 1.629 2.906 1.1 3.844 .041 C 4.781 -1.018 5.25 -2.414 5.25 -4.148 L 5.25 -5.379 L -3.598 -5.379 C -3.559 -6.887 -3.178 -8.031 -2.455 -8.813 C -1.732 -9.594 -.715 -9.984 .598 -9.984 C 1.98 -9.984 3.348 -9.695 4.699 -9.117 L 4.699 -10.852 C 4.012 -11.148 3.361 -11.361 2.748 -11.49 C 2.135 -11.619 1.395 -11.684 .527 -11.684 " fill="#231f20"/>
<path transform="matrix(1,0,0,-1,233.8699,111.2185)" d="M 0 0 C -1.859 0 -3.299 .572 -4.318 1.717 C -5.338 2.861 -5.848 4.48 -5.848 6.574 C -5.848 8.723 -5.33 10.383 -4.295 11.555 C -3.26 12.727 -1.785 13.313 .129 13.313 C .746 13.313 1.363 13.246 1.98 13.113 C 2.598 12.98 3.082 12.824 3.434 12.645 L 2.836 10.992 C 2.406 11.164 1.937 11.307 1.43 11.42 C .922 11.533 .473 11.59 .082 11.59 C -2.527 11.59 -3.832 9.926 -3.832 6.598 C -3.832 5.02 -3.514 3.809 -2.877 2.965 C -2.24 2.121 -1.297 1.699 -.047 1.699 C 1.023 1.699 2.121 1.93 3.246 2.391 L 3.246 .668 C 2.387 .223 1.305 0 0 0 " fill="#231f20"/>
<path transform="matrix(1,0,0,-1,248.9519,110.9841)" d="M 0 0 L 0 8.309 C 0 9.355 -.238 10.137 -.715 10.652 C -1.191 11.168 -1.937 11.426 -2.953 11.426 C -4.305 11.426 -5.291 11.059 -5.912 10.324 C -6.533 9.59 -6.844 8.387 -6.844 6.715 L -6.844 0 L -8.789 0 L -8.789 18.234 L -6.844 18.234 L -6.844 12.715 C -6.844 12.051 -6.875 11.5 -6.937 11.063 L -6.82 11.063 C -6.437 11.68 -5.893 12.166 -5.186 12.521 C -4.479 12.877 -3.672 13.055 -2.766 13.055 C -1.195 13.055 -.018 12.682 .768 11.936 C 1.553 11.189 1.945 10.004 1.945 8.379 L 1.945 0 Z " fill="#231f20"/>
<path transform="matrix(1,0,0,-1,263.6824,110.9841)" d="M 0 0 L 0 8.309 C 0 9.355 -.238 10.137 -.715 10.652 C -1.191 11.168 -1.937 11.426 -2.953 11.426 C -4.297 11.426 -5.281 11.063 -5.906 10.336 C -6.531 9.609 -6.844 8.41 -6.844 6.738 L -6.844 0 L -8.789 0 L -8.789 12.844 L -7.207 12.844 L -6.891 11.086 L -6.797 11.086 C -6.398 11.719 -5.84 12.209 -5.121 12.557 C -4.402 12.904 -3.602 13.078 -2.719 13.078 C -1.172 13.078 -.008 12.705 .773 11.959 C 1.555 11.213 1.945 10.02 1.945 8.379 L 1.945 0 Z " fill="#231f20"/>
<path transform="matrix(1,0,0,-1,270.9246,104.5505)" d="M 0 0 C 0 -1.641 .328 -2.891 .984 -3.75 C 1.641 -4.609 2.605 -5.039 3.879 -5.039 C 5.152 -5.039 6.119 -4.611 6.779 -3.756 C 7.439 -2.9 7.77 -1.648 7.77 0 C 7.77 1.633 7.439 2.873 6.779 3.721 C 6.119 4.568 5.145 4.992 3.855 4.992 C 2.582 4.992 1.621 4.574 .973 3.738 C .324 2.902 0 1.656 0 0 M 9.785 0 C 9.785 -2.094 9.258 -3.729 8.203 -4.904 C 7.148 -6.08 5.691 -6.668 3.832 -6.668 C 2.684 -6.668 1.664 -6.398 .773 -5.859 C -.117 -5.32 -.805 -4.547 -1.289 -3.539 C -1.773 -2.531 -2.016 -1.352 -2.016 0 C -2.016 2.094 -1.492 3.725 -.445 4.893 C .602 6.061 2.055 6.645 3.914 6.645 C 5.711 6.645 7.139 6.047 8.197 4.852 C 9.256 3.656 9.785 2.039 9.785 0 " fill="#231f20"/>
<path transform="matrix(1,0,0,-1,0,117.488)" d="M 286.065 6.504 L 284.12 6.504 L 284.12 24.737999 L 286.065 24.737999 Z " fill="#231f20"/>
<path transform="matrix(1,0,0,-1,291.491,104.5505)" d="M 0 0 C 0 -1.641 .328 -2.891 .984 -3.75 C 1.641 -4.609 2.605 -5.039 3.879 -5.039 C 5.152 -5.039 6.119 -4.611 6.779 -3.756 C 7.439 -2.9 7.77 -1.648 7.77 0 C 7.77 1.633 7.439 2.873 6.779 3.721 C 6.119 4.568 5.145 4.992 3.855 4.992 C 2.582 4.992 1.621 4.574 .973 3.738 C .324 2.902 0 1.656 0 0 M 9.785 0 C 9.785 -2.094 9.258 -3.729 8.203 -4.904 C 7.148 -6.08 5.691 -6.668 3.832 -6.668 C 2.684 -6.668 1.664 -6.398 .773 -5.859 C -.117 -5.32 -.805 -4.547 -1.289 -3.539 C -1.773 -2.531 -2.016 -1.352 -2.016 0 C -2.016 2.094 -1.492 3.725 -.445 4.893 C .602 6.061 2.055 6.645 3.914 6.645 C 5.711 6.645 7.139 6.047 8.197 4.852 C 9.256 3.656 9.785 2.039 9.785 0 " fill="#231f20"/>
<path transform="matrix(1,0,0,-1,306.01,102.2536)" d="M 0 0 C 0 -.898 .254 -1.578 .762 -2.039 C 1.27 -2.5 1.977 -2.73 2.883 -2.73 C 4.781 -2.73 5.73 -1.809 5.73 .035 C 5.73 1.965 4.77 2.93 2.848 2.93 C 1.934 2.93 1.23 2.684 .738 2.191 C .246 1.699 0 .969 0 0 M -1.055 -10.887 C -1.055 -11.582 -.762 -12.109 -.176 -12.469 C .41 -12.828 1.25 -13.008 2.344 -13.008 C 3.977 -13.008 5.186 -12.764 5.971 -12.275 C 6.756 -11.787 7.148 -11.125 7.148 -10.289 C 7.148 -9.594 6.934 -9.111 6.504 -8.842 C 6.074 -8.572 5.266 -8.438 4.078 -8.438 L 1.746 -8.438 C .863 -8.438 .176 -8.648 -.316 -9.07 C -.809 -9.492 -1.055 -10.098 -1.055 -10.887 M 9.188 4.113 L 9.188 2.883 L 6.809 2.602 C 7.027 2.328 7.223 1.971 7.395 1.529 C 7.566 1.088 7.652 .59 7.652 .035 C 7.652 -1.223 7.223 -2.227 6.363 -2.977 C 5.504 -3.727 4.324 -4.102 2.824 -4.102 C 2.441 -4.102 2.082 -4.07 1.746 -4.008 C .918 -4.445 .504 -4.996 .504 -5.66 C .504 -6.012 .648 -6.271 .937 -6.439 C 1.227 -6.607 1.723 -6.691 2.426 -6.691 L 4.699 -6.691 C 6.09 -6.691 7.158 -6.984 7.904 -7.57 C 8.65 -8.156 9.023 -9.008 9.023 -10.125 C 9.023 -11.547 8.453 -12.631 7.312 -13.377 C 6.172 -14.123 4.508 -14.496 2.32 -14.496 C .641 -14.496 -.654 -14.184 -1.564 -13.559 C -2.475 -12.934 -2.93 -12.051 -2.93 -10.91 C -2.93 -10.129 -2.68 -9.453 -2.18 -8.883 C -1.68 -8.313 -.977 -7.926 -.07 -7.723 C -.398 -7.574 -.674 -7.344 -.896 -7.031 C -1.119 -6.719 -1.23 -6.355 -1.23 -5.941 C -1.23 -5.473 -1.105 -5.062 -.855 -4.711 C -.605 -4.359 -.211 -4.02 .328 -3.691 C -.336 -3.418 -.877 -2.953 -1.295 -2.297 C -1.713 -1.641 -1.922 -.891 -1.922 -.047 C -1.922 1.359 -1.5 2.443 -.656 3.205 C .187 3.967 1.383 4.348 2.93 4.348 C 3.602 4.348 4.207 4.27 4.746 4.113 Z " fill="#231f20"/>
<path transform="matrix(1,0,0,-1,315.7952,98.1403)" d="M 0 0 L 2.086 0 L 4.898 -7.324 C 5.516 -8.996 5.898 -10.203 6.047 -10.945 L 6.141 -10.945 C 6.242 -10.547 6.455 -9.865 6.779 -8.9 C 7.104 -7.936 8.164 -4.969 9.961 0 L 12.047 0 L 6.527 -14.625 C 5.98 -16.07 5.342 -17.096 4.611 -17.701 C 3.881 -18.307 2.984 -18.609 1.922 -18.609 C 1.328 -18.609 .742 -18.543 .164 -18.41 L .164 -16.852 C .594 -16.945 1.074 -16.992 1.605 -16.992 C 2.941 -16.992 3.895 -16.242 4.465 -14.742 L 5.18 -12.914 Z " fill="#231f20"/>
<path transform="matrix(1,0,0,-1,0,117.488)" d="M 33.081 84.403 L 11.024002 84.403 L 11.024002 106.465 L 33.081 106.465 Z M 33.081 117.488 L 11.024 117.488 C 4.935 117.488 0 112.552 0 106.465 L 0 84.403 C 0 78.319 4.935 73.384 11.024 73.384 L 33.081 73.384 C 39.169 73.384 44.103 78.319 44.103 84.403 L 44.103 106.465 C 44.103 112.552 39.169 117.488 33.081 117.488 " fill="#00509e"/>
<path transform="matrix(1,0,0,-1,21.9783,12.929398)" d="M 0 0 C -4.997 0 -9.046 -4.054 -9.046 -9.049 C -9.046 -14.047 -4.997 -18.094 0 -18.094 C 4.996 -18.094 9.046 -14.047 9.046 -9.049 C 9.046 -4.054 4.996 0 0 0 " fill="#00509e"/>
<path transform="matrix(1,0,0,-1,74.9558,.04560089)" d="M 0 0 L 21.479 -31.225 L 21.479 -7.201 L 21.417 -1.487 L 14.962 -1.487 L 14.962 0 L 28.805 0 L 28.805 -1.487 L 23.466 -1.487 L 23.404 -7.201 L 23.404 -44.386 L 22.411 -44.697 L -6.394 -2.792 L -6.394 -36.441 L -6.333 -42.338 L .308 -42.338 L .308 -43.827 L -14.029 -43.827 L -14.029 -42.338 L -8.32 -42.338 L -8.258 -36.441 L -8.258 -7.201 L -8.32 -1.487 L -14.029 -1.487 L -14.029 0 Z " fill="#231f20"/>
<path transform="matrix(1,0,0,-1,146.5965,.04560089)" d="M 0 0 L 0 -14.028 L -1.863 -14.028 C -2.05 -11.856 -2.299 -9.126 -4.223 -5.896 C -6.458 -2.11 -9.5 -1.923 -12.479 -1.799 L -15.957 -1.799 L -16.017 -7.386 L -16.017 -36.004 L -15.957 -42.338 L -9.25 -42.338 L -9.25 -43.827 L -29.611 -43.827 L -29.611 -42.338 L -22.909 -42.338 L -22.845 -36.004 L -22.845 -7.386 L -22.909 -1.799 L -25.765 -1.799 C -29.365 -1.86 -32.096 -1.86 -34.703 -6.02 C -36.751 -9.312 -36.938 -11.918 -37.063 -14.028 L -38.862 -14.028 L -38.862 0 Z " fill="#231f20"/>
<path transform="matrix(1,0,0,-1,164.2263,.04560089)" d="M 0 0 L 21.479 -31.225 L 21.479 -7.201 L 21.418 -1.487 L 14.961 -1.487 L 14.961 0 L 28.804 0 L 28.804 -1.487 L 23.465 -1.487 L 23.402 -7.201 L 23.402 -44.386 L 22.409 -44.697 L -6.396 -2.792 L -6.396 -36.441 L -6.333 -42.338 L .312 -42.338 L .312 -43.827 L -14.031 -43.827 L -14.031 -42.338 L -8.317 -42.338 L -8.259 -36.441 L -8.259 -7.201 L -8.317 -1.487 L -14.031 -1.487 L -14.031 0 Z " fill="#231f20"/>
<path transform="matrix(1,0,0,-1,217.1345,.04560089)" d="M 0 0 L 0 -1.487 L -6.148 -1.487 L -6.207 -6.766 L -6.207 -30.481 C -6.148 -36.627 -6.021 -42.461 5.525 -42.461 C 17.195 -42.461 17.94 -37.37 18.125 -31.845 L 18.125 -6.766 L 18.065 -1.487 L 11.797 -1.487 L 11.797 0 L 25.512 0 L 25.512 -1.487 L 20.115 -1.487 L 20.053 -6.766 L 20.053 -29.364 C 19.988 -37.497 19.927 -44.447 3.849 -44.447 C 1.555 -44.447 -3.912 -44.201 -7.386 -42.772 C -12.911 -40.412 -13.035 -35.571 -13.098 -29.611 L -13.098 -6.766 L -13.161 -1.487 L -18.5 -1.487 L -18.5 0 Z " fill="#231f20"/>
</g>
</g>
</g>
</svg>
