<svg width="1660" height="970" xmlns="http://www.w3.org/2000/svg" xmlns:xlink="http://www.w3.org/1999/xlink" xml:space="preserve" overflow="hidden"><defs><clipPath id="clip0"><rect x="2488" y="281" width="1660" height="970"/></clipPath><clipPath id="clip1"><rect x="2489" y="282" width="1656" height="967"/></clipPath><clipPath id="clip2"><rect x="2665" y="332" width="1402" height="612"/></clipPath><clipPath id="clip3"><rect x="2665" y="332" width="1402" height="612"/></clipPath><clipPath id="clip4"><rect x="2665" y="332" width="1402" height="612"/></clipPath><clipPath id="clip5"><rect x="2665" y="332" width="1402" height="612"/></clipPath><clipPath id="clip6"><rect x="2489" y="282" width="1656" height="967"/></clipPath><clipPath id="clip7"><rect x="2489" y="282" width="1656" height="967"/></clipPath><clipPath id="clip8"><rect x="2489" y="282" width="1656" height="967"/></clipPath><clipPath id="clip9"><rect x="2489" y="282" width="1656" height="967"/></clipPath><clipPath id="clip10"><rect x="2489" y="282" width="1656" height="967"/></clipPath><clipPath id="clip11"><rect x="2489" y="282" width="1656" height="967"/></clipPath><clipPath id="clip12"><rect x="2489" y="282" width="1656" height="967"/></clipPath><clipPath id="clip13"><rect x="2489" y="282" width="1656" height="967"/></clipPath><clipPath id="clip14"><rect x="2489" y="282" width="1656" height="967"/></clipPath><clipPath id="clip15"><rect x="2489" y="282" width="1656" height="967"/></clipPath><clipPath id="clip16"><rect x="2489" y="282" width="1656" height="967"/></clipPath><clipPath id="clip17"><rect x="2489" y="282" width="1656" height="967"/></clipPath><clipPath id="clip18"><rect x="2489" y="282" width="1656" height="967"/></clipPath><clipPath id="clip19"><rect x="2489" y="282" width="1656" height="967"/></clipPath><clipPath id="clip20"><rect x="2489" y="282" width="1656" height="967"/></clipPath><clipPath id="clip21"><rect x="2489" y="282" width="1656" height="967"/></clipPath><clipPath id="clip22"><rect x="2489" y="282" width="1656" height="967"/></clipPath><clipPath id="clip23"><rect x="2489" y="282" width="1656" height="967"/></clipPath><clipPath id="clip24"><rect x="2489" y="282" width="1656" height="967"/></clipPath><clipPath id="clip25"><rect x="2489" y="282" width="1656" height="967"/></clipPath><clipPath id="clip26"><rect x="2489" y="282" width="1656" height="967"/></clipPath><clipPath id="clip27"><rect x="2489" y="282" width="1656" height="967"/></clipPath><clipPath id="clip28"><rect x="2489" y="282" width="1656" height="967"/></clipPath><clipPath id="clip29"><rect x="2489" y="282" width="1656" height="967"/></clipPath><clipPath id="clip30"><rect x="2489" y="282" width="1656" height="967"/></clipPath></defs><g clip-path="url(#clip0)" transform="translate(-2488 -281)"><rect x="2489" y="282" width="1657" height="967" fill="#FFFFFF"/><g clip-path="url(#clip1)"><path d="M3015.6 332.5 3015.6 940.5M3364.61 332.5 3364.61 940.5M3714.62 332.5 3714.62 940.5M4064.5 332.5 4064.5 940.5" stroke="#D9D9D9" stroke-width="3.4375" stroke-linejoin="round" stroke-miterlimit="10" fill="none"/></g><g clip-path="url(#clip2)"><path d="M3113.1 373.012 2666 373.012 2666 418.014 3113.1 418.014ZM3547.12 677.022 2666 677.022 2666 722.024 3547.12 722.024Z" fill="#4472C4"/></g><g clip-path="url(#clip3)"><path d="M3679.12 418.014 2666 418.014 2666 462.015 3679.12 462.015ZM3966.13 722.024 2666 722.024 2666 767.025 3966.13 767.025Z" fill="#ED7D31"/></g><g clip-path="url(#clip4)"><path d="M3323.11 507.017 2666 507.017 2666 552.018 3323.11 552.018ZM3330.11 811.027 2666 811.027 2666 856.028 3330.11 856.028Z" fill="#FFC000"/></g><g clip-path="url(#clip5)"><path d="M3631.12 552.018 2666 552.018 2666 596.02 3631.12 596.02ZM3763.12 856.028 2666 856.028 2666 900.03 3763.12 900.03Z" fill="#5B9BD5"/></g><g clip-path="url(#clip6)"><path d="M2665.5 332.5 2665.5 940.5" stroke="#D9D9D9" stroke-width="3.4375" stroke-linejoin="round" stroke-miterlimit="10" fill="none" fill-rule="evenodd"/></g><g clip-path="url(#clip7)"><text fill="#404040" font-family="Calibri,Calibri_MSFontService,sans-serif" font-weight="400" font-size="41" transform="matrix(1 0 0 1 3140.8 409)">64</text></g><g clip-path="url(#clip8)"><text fill="#404040" font-family="Calibri,Calibri_MSFontService,sans-serif" font-weight="400" font-size="41" transform="matrix(1 0 0 1 3574.27 713)">126</text></g><g clip-path="url(#clip9)"><text fill="#404040" font-family="Calibri,Calibri_MSFontService,sans-serif" font-weight="400" font-size="41" transform="matrix(1 0 0 1 3707.11 454)">145</text></g><g clip-path="url(#clip10)"><text fill="#404040" font-family="Calibri,Calibri_MSFontService,sans-serif" font-weight="400" font-size="41" transform="matrix(1 0 0 1 3993.75 758)">186</text></g><g clip-path="url(#clip11)"><text fill="#404040" font-family="Calibri,Calibri_MSFontService,sans-serif" font-weight="400" font-size="41" transform="matrix(1 0 0 1 3350.55 543)">94</text></g><g clip-path="url(#clip12)"><text fill="#404040" font-family="Calibri,Calibri_MSFontService,sans-serif" font-weight="400" font-size="41" transform="matrix(1 0 0 1 3357.54 847)">95</text></g><g clip-path="url(#clip13)"><text fill="#404040" font-family="Calibri,Calibri_MSFontService,sans-serif" font-weight="400" font-size="41" transform="matrix(1 0 0 1 3658.17 588)">138</text></g><g clip-path="url(#clip14)"><text fill="#404040" font-family="Calibri,Calibri_MSFontService,sans-serif" font-weight="400" font-size="41" transform="matrix(1 0 0 1 3791 892)">157</text></g><g clip-path="url(#clip15)"><text fill="#595959" font-family="Calibri,Calibri_MSFontService,sans-serif" font-weight="400" font-size="41" transform="matrix(1 0 0 1 2655.4 1006)">0</text></g><g clip-path="url(#clip16)"><text fill="#595959" font-family="Calibri,Calibri_MSFontService,sans-serif" font-weight="400" font-size="41" transform="matrix(1 0 0 1 2994.52 1006)">50</text></g><g clip-path="url(#clip17)"><text fill="#595959" font-family="Calibri,Calibri_MSFontService,sans-serif" font-weight="400" font-size="41" transform="matrix(1 0 0 1 3333.64 1006)">100</text></g><g clip-path="url(#clip18)"><text fill="#595959" font-family="Calibri,Calibri_MSFontService,sans-serif" font-weight="400" font-size="41" transform="matrix(1 0 0 1 3683.21 1006)">150</text></g><g clip-path="url(#clip19)"><text fill="#595959" font-family="Calibri,Calibri_MSFontService,sans-serif" font-weight="400" font-size="41" transform="matrix(1 0 0 1 4032.78 1006)">200</text></g><g clip-path="url(#clip20)"><text fill="#595959" font-family="Calibri,Calibri_MSFontService,sans-serif" font-weight="400" font-size="41" transform="matrix(1 0 0 1 2518.94 496)">Case 1</text></g><g clip-path="url(#clip21)"><text fill="#595959" font-family="Calibri,Calibri_MSFontService,sans-serif" font-weight="400" font-size="41" transform="matrix(1 0 0 1 2518.94 800)">Case 2</text></g><g clip-path="url(#clip22)"><text fill="#595959" font-family="Calibri,Calibri_MSFontService,sans-serif" font-weight="400" font-size="46" transform="matrix(1 0 0 1 3216 1075)">Time in seconds</text></g><g clip-path="url(#clip23)"><rect x="2632" y="1172" width="22" height="22" fill="#4472C4"/></g><g clip-path="url(#clip24)"><text fill="#595959" font-family="Calibri,Calibri_MSFontService,sans-serif" font-weight="400" font-size="41" transform="matrix(1 0 0 1 2663.99 1195)">Subject 1, App</text></g><g clip-path="url(#clip25)"><rect x="2963" y="1172" width="23" height="22" fill="#ED7D31"/></g><g clip-path="url(#clip26)"><text fill="#595959" font-family="Calibri,Calibri_MSFontService,sans-serif" font-weight="400" font-size="41" transform="matrix(1 0 0 1 2995.33 1195)">Subject 1, Manual</text></g><g clip-path="url(#clip27)"><rect x="3355" y="1172" width="22" height="22" fill="#FFC000"/></g><g clip-path="url(#clip28)"><text fill="#595959" font-family="Calibri,Calibri_MSFontService,sans-serif" font-weight="400" font-size="41" transform="matrix(1 0 0 1 3387.04 1195)">Subject 2, App</text></g><g clip-path="url(#clip29)"><rect x="3686" y="1172" width="23" height="22" fill="#5B9BD5"/></g><g clip-path="url(#clip30)"><text fill="#595959" font-family="Calibri,Calibri_MSFontService,sans-serif" font-weight="400" font-size="41" transform="matrix(1 0 0 1 3718.39 1195)">Subject 2, Manual</text></g><rect x="2489.5" y="282.5" width="1657" height="967" stroke="#D9D9D9" stroke-width="3.4375" stroke-linejoin="round" stroke-miterlimit="10" fill="none"/></g></svg>